<?xml version="1.0" standalone="no"?>
<!DOCTYPE svg PUBLIC "-//W3C//DTD SVG 20010904//EN"
 "http://www.w3.org/TR/2001/REC-SVG-20010904/DTD/svg10.dtd">
<svg version="1.0" xmlns="http://www.w3.org/2000/svg"
 width="519.000000pt" height="683.000000pt" viewBox="0 0 519.000000 683.000000"
 preserveAspectRatio="xMidYMid meet">

<g transform="translate(0.000000,683.000000) scale(0.100000,-0.100000)"
fill="#000000" stroke="none">
<path d="M2435 6820 c-11 -5 -38 -9 -59 -9 -89 -2 -263 -82 -379 -173 -78 -63
-103 -69 -207 -48 -48 9 -202 -8 -296 -34 -97 -26 -252 -124 -334 -210 -105
-112 -178 -243 -210 -379 -14 -61 -32 -80 -96 -106 -68 -27 -222 -154 -278
-228 -52 -70 -121 -209 -137 -278 -6 -27 -15 -66 -21 -85 -12 -43 -5 -266 11
-335 11 -48 10 -50 -26 -105 -117 -176 -157 -305 -156 -511 0 -75 5 -145 10
-155 6 -10 13 -31 17 -46 l6 -28 -131 0 -132 0 7 -117 c37 -602 222 -1147 533
-1565 l65 -88 -147 -601 c-81 -330 -144 -603 -141 -606 3 -3 333 89 734 205
l728 210 84 -24 c248 -72 468 -98 763 -91 236 5 371 24 582 82 867 238 1598
974 1858 1870 58 200 90 388 103 608 l7 117 -148 0 -147 0 6 23 c38 124 40
137 40 267 0 144 -7 178 -56 305 -51 129 -148 264 -237 330 l-51 37 0 76 c0
107 -29 240 -75 343 -67 152 -206 299 -355 378 -51 27 -56 33 -80 97 -43 118
-86 188 -166 273 -108 115 -188 167 -331 216 -107 37 -156 45 -286 45 l-132 0
-54 66 c-29 36 -68 75 -86 87 -18 12 -59 40 -91 63 -66 46 -160 85 -249 103
-33 7 -70 17 -83 22 -29 11 -150 11 -177 -1z m124 -401 c95 -17 167 -53 238
-122 35 -33 63 -64 63 -69 0 -5 8 -21 17 -35 31 -46 43 -95 43 -173 0 -84 4
-94 41 -103 21 -5 32 0 60 29 86 90 184 134 298 134 161 0 308 -88 375 -224
37 -74 58 -184 45 -230 -18 -64 -13 -69 84 -83 108 -15 160 -40 243 -116 111
-101 156 -243 123 -385 -19 -84 -41 -129 -90 -184 -21 -24 -39 -46 -39 -50 0
-5 33 -8 73 -8 117 0 196 -34 287 -122 82 -79 119 -163 124 -283 2 -59 -2 -92
-16 -133 -23 -66 -50 -118 -77 -149 l-19 -23 -1855 0 -1855 0 -20 33 c-38 65
-57 139 -56 222 1 128 50 237 142 313 46 37 67 49 165 91 l47 20 -46 43 c-95
88 -144 195 -144 314 1 125 37 211 124 297 101 99 217 137 356 116 41 -7 80
-16 87 -21 15 -12 28 9 15 25 -19 22 -54 121 -63 177 -20 124 36 278 130 359
75 65 129 92 215 107 130 22 261 -18 359 -109 27 -25 50 -40 51 -34 35 131 61
184 125 252 61 66 150 108 280 134 2 1 34 -4 70 -10z"/>
<path d="M2588 5475 c-128 -36 -250 -130 -304 -236 -13 -26 -27 -50 -32 -53
-4 -3 -31 6 -59 20 -111 55 -227 66 -349 34 -85 -23 -117 -38 -154 -70 -14
-12 -34 -29 -46 -36 -31 -21 -93 -115 -121 -185 -22 -55 -24 -73 -21 -169 2
-92 6 -113 24 -137 18 -23 29 -28 65 -27 66 2 80 26 78 133 -1 47 2 102 6 121
17 74 105 173 184 206 19 8 67 14 108 14 99 0 183 -38 244 -110 50 -59 91 -72
138 -44 31 18 41 39 41 89 1 87 59 184 145 241 95 63 226 68 314 13 83 -53
171 -29 171 48 0 37 -21 61 -80 95 -109 63 -242 83 -352 53z"/>
<path d="M2528 926 l-2528 -111 0 -102 0 -103 2560 0 2560 0 0 215 0 215 -32
-1 c-18 -1 -1170 -52 -2560 -113z"/>
<path d="M0 331 l0 -99 93 -6 c118 -8 4916 -216 4980 -216 l47 0 0 210 0 210
-2560 0 -2560 0 0 -99z"/>
</g>
</svg>
